# xmcd
#
# Track frame offsets: 
#        182
#        17980
#        33457
#        48542
#        62107
#        79445
#        96195
#        113767
#        128572
#        145622
#        164107
#        179332
#        197650
#        218170
#        235392
#        251867
#        266637
#        284450
#        301620
#        320057
#
# Disc length: 4472 seconds
#
# Revision: 7
# Processed by: cddbd v1.5.1PL0 Copyright (c) Steve Scherf et al.
# Submitted via: ExactAudioCopy v0.95a5
#
DISCID=2f117614
DTITLE=Various Artist - Rhymes Galore - CD 2
DYEAR=2000
DGENRE=Hip-Hop
TTITLE0=Das Bo - Türlich, türlich (sicher, Dicker)
TTITLE1=Deichkind featuring Nina - Bon Voyage
TTITLE2=Absolute Beginner featuring Junior Reid and Eißfeldt65 - Rock On
TTITLE2=and On
TTITLE3=Dynamite Deluxe - Wie jetzt
TTITLE4=Doppelkopf vs. Yard - Supa Stah (Chan Chan)
TTITLE5=Fünf Sterne deluxe - Ja, ja...Deine Mudder!
TTITLE6=Spezializtz - Tut was Ihr nicht lassen könnt
TTITLE7=Ferris MC featuring DJ Stylewarz - Tanz mit mir
TTITLE8=Massive Töne - Chartbreaker (Einmal Star und zurück)
TTITLE9=Stieber Twins featuring Samy Deluxe and Max - Malaria
TTITLE10=Roey Marquis II. featuring RAG - Eiszeit
TTITLE11=Lyroholika - Rapstar
TTITLE12=Tefla and Jaleel - Rhythmus Mafiosis
TTITLE13=MC Rene - Ich würde alles für Dich tun
TTITLE14=Harleckinz - Berlin Love
TTITLE15=DJ Thomilla featuring Gentleman - Wickedness Broke Ya Neck
TTITLE16=Mellowbag and Freundeskreis featuring Mr. Gentleman - Tabula Ra
TTITLE16=sa
TTITLE17=Curse - Hassliebe
TTITLE18=Plattenpapzt featuring Kool Savas - King Of Rap
TTITLE19=DJ Tomekk vs. Grandmaster Flash featuring Afrob, Flavor Flav 
TTITLE19=& MC Rene - 1, 2, 3, ...Rhymes Galore
EXTD=YEAR: 2000 ID3G: 7
EXTT0=
EXTT1=
EXTT2=
EXTT3=
EXTT4=
EXTT5=
EXTT6=
EXTT7=
EXTT8=
EXTT9=
EXTT10=
EXTT11=
EXTT12=
EXTT13=
EXTT14=
EXTT15=
EXTT16=
EXTT17=
EXTT18=
EXTT19=
PLAYORDER=
